<?xml version="1.0" encoding="utf-8"?>
<!-- Generator: Adobe Illustrator 27.0.0, SVG Export Plug-In . SVG Version: 6.00 Build 0)  -->
<svg version="1.1" xmlns="http://www.w3.org/2000/svg" xmlns:xlink="http://www.w3.org/1999/xlink" x="0px" y="0px"
	 viewBox="0 0 375 812" style="enable-background:new 0 0 375 812;" xml:space="preserve">
<style type="text/css">
	.st0{clip-path:url(#SVGID_00000026144088638553724590000016264682205194803342_);}
	.st1{filter:url(#Adobe_OpacityMaskFilter);}
	.st2{clip-path:url(#SVGID_00000145747286626422896750000012978044600412580777_);}
	
		.st3{clip-path:url(#SVGID_00000145747286626422896750000012978044600412580777_);mask:url(#SVGID_00000037653680106095924180000014905321650626440349_);}
	.st4{opacity:0.25;clip-path:url(#SVGID_00000161617628550170680500000005342480649116641923_);fill:#C8C8C8;}
	.st5{filter:url(#Adobe_OpacityMaskFilter_00000179642190492088347960000013121899406039864742_);}
	.st6{clip-path:url(#SVGID_00000145747286626422896750000012978044600412580777_);fill:#FFFFFF;}
	
		.st7{clip-path:url(#SVGID_00000145747286626422896750000012978044600412580777_);mask:url(#SVGID_00000118398328028668953060000012702140108074544782_);}
	.st8{clip-path:url(#SVGID_00000152252959365854277140000009551508761899493536_);fill:#00FF00;}
	.st9{filter:url(#Adobe_OpacityMaskFilter_00000117671662687602666490000008640598364954394547_);}
	.st10{clip-path:url(#SVGID_00000152252959365854277140000009551508761899493536_);}
	.st11{opacity:0.75;clip-path:url(#SVGID_00000152252959365854277140000009551508761899493536_);fill:#FFFFFF;}
	.st12{filter:url(#Adobe_OpacityMaskFilter_00000141431504040659959860000000281916277987875472_);}
	
		.st13{opacity:0.75;clip-path:url(#SVGID_00000152252959365854277140000009551508761899493536_);mask:url(#SVGID_00000083090673653868825270000008010836501081163929_);fill:#00FFFF;}
	.st14{filter:url(#Adobe_OpacityMaskFilter_00000092444150768779739540000009882314081660984463_);}
	.st15{mask:url(#SVGID_00000144332360977037443750000012992780670310927540_);}
	.st16{opacity:0.25;clip-path:url(#SVGID_00000067230245282301575090000007894003860173838722_);fill:#C8C8C8;}
	.st17{fill:#00FF00;}
	.st18{filter:url(#Adobe_OpacityMaskFilter_00000072272029550384177370000009176991284260670129_);}
	.st19{opacity:0.75;mask:url(#SVGID_00000067956731237406411710000001810637584896107930_);fill:#00FFFF;}
	.st20{filter:url(#Adobe_OpacityMaskFilter_00000022553001683001656400000003208433921128526761_);}
	.st21{opacity:0.75;mask:url(#SVGID_00000016044659805875267370000010391560719205438898_);fill:#FFFFFF;}
	.st22{fill:#C8C8C8;}
</style>
<g id="Calque_1">
</g>
<g id="Calque_2">
</g>
<g id="LAYER">
	<rect class="st22" width="375" height="812"/>
	<path class="st17" d="M135.35,691.74l-0.09,6.13l10.48,0.16l0.09-6.13L135.35,691.74z M187.94,686.4l-0.09,6.13l12.44,0.18
		c0.57,0.01,1.09,0.15,1.56,0.42c0.46,0.27,0.83,0.65,1.09,1.12c0.26,0.47,0.38,1,0.38,1.57c-0.01,0.57-0.15,1.09-0.42,1.56
		c-0.27,0.47-0.65,0.83-1.12,1.09c-0.47,0.26-1,0.38-1.57,0.38l-11.64-0.17c-2.25-0.03-4.33-0.21-6.24-0.52
		c-1.92-0.31-3.62-0.69-5.1-1.12c-1.49-0.43-3.28-0.99-5.4-1.67c-2.11-0.73-3.92-1.3-5.43-1.71c-1.51-0.41-3.21-0.77-5.1-1.09
		c-1.89-0.31-3.99-0.49-6.27-0.52l-3.06-0.05l-0.09,6.13l3.06,0.05c1.92,0.03,3.7,0.18,5.35,0.45c1.65,0.27,3.16,0.58,4.52,0.92
		c1.36,0.35,3,0.84,4.91,1.48c2.23,0.77,4.17,1.4,5.79,1.89c1.63,0.49,3.53,0.92,5.71,1.28c2.18,0.36,4.6,0.56,7.25,0.6l11.64,0.17
		c1.67,0.03,3.22-0.36,4.64-1.16c1.42-0.8,2.55-1.89,3.39-3.29c0.84-1.4,1.27-2.93,1.29-4.61c0.03-1.67-0.36-3.22-1.16-4.64
		c-0.8-1.42-1.89-2.55-3.29-3.39c-1.4-0.84-2.93-1.27-4.61-1.29L187.94,686.4z M169.45,667.83l18.99,0.33
		c0.57,0.01,1.09,0.15,1.55,0.43c0.46,0.27,0.82,0.65,1.08,1.12c0.26,0.47,0.38,1,0.37,1.57c-0.01,0.57-0.15,1.09-0.43,1.55
		c-0.27,0.46-0.65,0.83-1.12,1.08c-0.47,0.26-1,0.38-1.57,0.37l-18.99-0.33L169.45,667.83z M144.44,661.27
		c-1.68-0.03-3.22,0.35-4.65,1.14c-1.42,0.79-2.56,1.89-3.4,3.28c-0.84,1.39-1.28,2.93-1.31,4.6c-0.03,1.67,0.35,3.22,1.14,4.65
		c0.79,1.42,1.89,2.56,3.28,3.4c1.4,0.84,2.93,1.28,4.6,1.31l9.92,0.17l0.11-6.13l-9.92-0.17c-0.57-0.01-1.09-0.15-1.55-0.43
		c-0.46-0.27-0.83-0.65-1.08-1.12c-0.26-0.47-0.38-1-0.37-1.57c0.01-0.57,0.15-1.09,0.43-1.55c0.27-0.47,0.65-0.83,1.12-1.08
		c0.47-0.26,1-0.38,1.57-0.37l18.99,0.33l-0.21,12.25l25.12,0.44c1.67,0.03,3.22-0.35,4.65-1.14c1.42-0.79,2.56-1.89,3.4-3.28
		c0.84-1.39,1.28-2.93,1.31-4.6c0.03-1.68-0.35-3.22-1.14-4.65c-0.79-1.42-1.89-2.56-3.28-3.4c-1.39-0.84-2.93-1.28-4.6-1.31
		L144.44,661.27z M136.67,650.44c0.79,1.42,1.88,2.56,3.28,3.4c1.39,0.84,2.93,1.28,4.6,1.31l7.9,0.14c2.08,0.04,3.99-0.2,5.71-0.7
		c1.72-0.5,3.29-1.2,4.69-2.09c1.4-0.89,2.94-2.06,4.6-3.5c0.29-0.2,0.58-0.4,0.87-0.6c0.29-0.2,0.58-0.4,0.87-0.6
		c0.12-0.08,0.24-0.15,0.34-0.21c0.1-0.06,0.2-0.13,0.28-0.21c1.24-0.96,2.45-1.71,3.62-2.26c1.17-0.55,2.38-0.96,3.61-1.22
		s2.54-0.38,3.93-0.36l7.9,0.14c0.53,0.01,1.03,0.16,1.49,0.46s0.84,0.68,1.11,1.15c0.28,0.47,0.41,0.98,0.4,1.51
		c-0.01,0.53-0.16,1.03-0.46,1.49c-0.29,0.46-0.68,0.83-1.15,1.11c-0.47,0.28-0.98,0.41-1.51,0.4l-10.48-0.19l-0.11,6.12l10.48,0.19
		c1.67,0.03,3.22-0.35,4.65-1.14c1.42-0.79,2.56-1.88,3.4-3.28c0.84-1.39,1.28-2.93,1.31-4.6s-0.35-3.22-1.14-4.65
		c-0.79-1.42-1.89-2.56-3.28-3.4c-1.39-0.84-2.93-1.28-4.6-1.31l-7.9-0.14c-2.04-0.04-3.97,0.17-5.77,0.63
		c-1.81,0.46-3.52,1.15-5.15,2.08c-1.63,0.93-3.26,2.16-4.88,3.68c-0.17,0.16-0.32,0.32-0.47,0.48c-0.15,0.16-0.3,0.32-0.47,0.48
		c-0.12,0.08-0.24,0.17-0.34,0.27c-0.1,0.1-0.22,0.19-0.34,0.27c-1.24,1-2.44,1.77-3.6,2.33c-1.15,0.55-2.35,0.95-3.58,1.19
		c-1.23,0.24-2.54,0.35-3.93,0.33l-7.9-0.14c-0.53-0.01-1.03-0.16-1.49-0.46c-0.46-0.29-0.84-0.68-1.11-1.15
		c-0.28-0.48-0.41-0.98-0.4-1.51c0.01-0.53,0.16-1.03,0.46-1.49c0.29-0.47,0.68-0.84,1.15-1.11c0.47-0.28,0.98-0.41,1.51-0.4
		l10.48,0.19l0.11-6.12l-10.47-0.19c-1.68-0.03-3.22,0.35-4.65,1.14c-1.42,0.79-2.56,1.88-3.4,3.28c-0.84,1.4-1.28,2.93-1.31,4.6
		C135.5,647.46,135.88,649.01,136.67,650.44 M188.67,619.06l-0.1,6.13l9.19,0.15l0.1-6.13L188.67,619.06z M136.6,618.24l-0.1,6.13
		l52.07,0.82c0.57,0.01,1.09,0.15,1.56,0.42c0.46,0.27,0.83,0.65,1.09,1.12c0.26,0.47,0.38,1,0.37,1.57l-0.07,4.59l6.13,0.1
		l0.07-4.59c0.03-1.67-0.36-3.22-1.15-4.64c-0.79-1.42-1.89-2.55-3.29-3.39c-1.4-0.84-2.93-1.27-4.61-1.3L136.6,618.24z
		 M189.49,600.33c0.57,0.01,1.09,0.14,1.56,0.41c0.47,0.27,0.83,0.64,1.09,1.11c0.26,0.47,0.39,0.99,0.38,1.57
		c-0.01,0.57-0.14,1.09-0.41,1.56c-0.27,0.47-0.64,0.83-1.11,1.09c-0.47,0.26-1,0.39-1.57,0.39l-44.11-0.39
		c-0.57-0.01-1.09-0.14-1.56-0.41c-0.47-0.27-0.83-0.64-1.09-1.11c-0.26-0.47-0.39-0.99-0.39-1.57c0.01-0.57,0.14-1.09,0.41-1.56
		c0.27-0.47,0.64-0.83,1.11-1.09c0.47-0.26,0.99-0.39,1.57-0.38L189.49,600.33z M145.44,593.81c-1.67-0.01-3.22,0.38-4.64,1.18
		c-1.42,0.8-2.54,1.91-3.37,3.31c-0.83,1.4-1.25,2.94-1.27,4.61c-0.01,1.67,0.38,3.22,1.18,4.64c0.8,1.42,1.91,2.54,3.31,3.37
		c1.4,0.83,2.94,1.25,4.61,1.27l44.11,0.39c1.67,0.01,3.22-0.38,4.64-1.18c1.42-0.8,2.54-1.91,3.37-3.31
		c0.83-1.4,1.25-2.94,1.27-4.61c0.01-1.68-0.38-3.22-1.18-4.64c-0.8-1.42-1.91-2.54-3.31-3.37c-1.4-0.83-2.94-1.25-4.61-1.27
		L145.44,593.81z M190.05,571.17l-0.23,6.12l20.82,0.77l0.23-6.12L190.05,571.17z M136.94,581.48l-0.23,6.12l52.65,1.94
		c1.67,0.06,3.23-0.29,4.67-1.05c1.44-0.77,2.59-1.84,3.46-3.21c0.87-1.38,1.33-2.9,1.4-4.58c0.06-1.67-0.29-3.23-1.06-4.67
		s-1.84-2.59-3.21-3.46c-1.38-0.87-2.9-1.33-4.58-1.39l-52.65-1.94l-0.23,6.12l52.65,1.94c0.57,0.02,1.09,0.17,1.55,0.46
		c0.46,0.28,0.81,0.66,1.06,1.14c0.25,0.48,0.36,1,0.34,1.58c-0.02,0.57-0.17,1.09-0.45,1.55c-0.28,0.46-0.66,0.81-1.14,1.06
		c-0.48,0.25-1,0.36-1.58,0.34L136.94,581.48z M176.64,537.73l18.48,4.37c0.56,0.13,1.03,0.38,1.43,0.75
		c0.39,0.37,0.67,0.81,0.82,1.33c0.15,0.52,0.16,1.05,0.03,1.61c-0.13,0.56-0.38,1.03-0.75,1.43c-0.37,0.4-0.81,0.67-1.33,0.82
		c-0.52,0.15-1.05,0.16-1.61,0.03l-18.48-4.37L176.64,537.73z M153.61,525.98c-1.63-0.38-3.22-0.34-4.78,0.13
		c-1.56,0.47-2.9,1.3-4.02,2.48c-1.12,1.18-1.87,2.59-2.26,4.22c-0.38,1.63-0.34,3.22,0.13,4.78c0.47,1.56,1.3,2.9,2.48,4.02
		c1.18,1.12,2.59,1.87,4.22,2.26l9.66,2.28l1.41-5.96l-9.66-2.28c-0.56-0.13-1.03-0.38-1.43-0.75c-0.4-0.37-0.67-0.81-0.82-1.33
		c-0.15-0.52-0.16-1.06-0.03-1.61c0.13-0.56,0.38-1.03,0.75-1.43c0.37-0.4,0.81-0.67,1.33-0.82c0.52-0.15,1.06-0.16,1.61-0.03
		l18.48,4.37l-2.82,11.93l24.45,5.78c1.63,0.39,3.22,0.34,4.78-0.13c1.56-0.47,2.9-1.3,4.02-2.48c1.12-1.18,1.87-2.59,2.26-4.22
		c0.38-1.63,0.34-3.22-0.13-4.78c-0.47-1.56-1.3-2.9-2.48-4.02c-1.18-1.12-2.59-1.87-4.22-2.26L153.61,525.98z M204.78,522.51
		l-1.11,2.85l-42.82-16.68c-1.56-0.61-3.15-0.79-4.76-0.54c-1.61,0.25-3.05,0.88-4.32,1.9c-1.27,1.02-2.21,2.3-2.82,3.87l-1.11,2.85
		l5.71,2.22l1.11-2.85c0.21-0.53,0.52-0.97,0.94-1.31c0.42-0.34,0.89-0.55,1.43-0.63c0.53-0.08,1.07-0.01,1.6,0.2l42.82,16.68
		l-2.23,5.71l5.71,2.22l2.22-5.71l5.71,2.22l2.22-5.71l-5.71-2.22l1.11-2.85L204.78,522.51z M219.44,521.74l-2.86,5.42l5.42,2.86
		l2.86-5.42L219.44,521.74z M159.84,490.29l-2.86,5.42l54.19,28.59l2.86-5.42L159.84,490.29z M218.21,497.47l-3.51,5.02l17.07,11.93
		l3.51-5.02L218.21,497.47z M168,477.33l-3.51,5.02l43.18,30.19c1.37,0.96,2.87,1.51,4.49,1.65c1.62,0.14,3.17-0.14,4.65-0.82
		c1.48-0.69,2.7-1.72,3.66-3.09c0.96-1.37,1.51-2.87,1.65-4.49c0.14-1.62-0.14-3.17-0.82-4.65c-0.69-1.48-1.72-2.7-3.09-3.65
		l-43.18-30.19l-3.51,5.02l43.18,30.19c0.47,0.33,0.82,0.73,1.05,1.22c0.23,0.49,0.32,1,0.27,1.54c-0.05,0.54-0.24,1.04-0.57,1.51
		c-0.33,0.47-0.73,0.82-1.22,1.05c-0.49,0.23-1,0.32-1.54,0.27c-0.54-0.05-1.04-0.24-1.51-0.57L168,477.33z M202.86,437.26
		l-6.22,6.43l35.56,42.54l1.96-2.02l-43.66-34.18l-6.22,6.43l39.67,47.11l4.3-4.45l-35.9-42.19l-1.11,1.14l43.66,34.18l5.37-5.55
		l-35.56-42.54l-1.11,1.14l43.32,34.53l4.3-4.45L202.86,437.26z M223.49,418.33c-0.39,1.58-0.36,3.15,0.09,4.72
		c0.45,1.57,1.27,2.93,2.48,4.09l5.69,5.48c1.5,1.45,3.05,2.57,4.65,3.38c1.6,0.81,3.22,1.36,4.86,1.67
		c1.64,0.3,3.55,0.49,5.75,0.57c0.35,0.05,0.7,0.1,1.04,0.15c0.35,0.05,0.7,0.1,1.04,0.15c0.15,0.03,0.28,0.05,0.39,0.08
		c0.12,0.03,0.23,0.04,0.35,0.04c1.56,0.14,2.96,0.42,4.2,0.81c1.23,0.4,2.39,0.92,3.47,1.56c1.08,0.64,2.12,1.45,3.12,2.41
		l5.69,5.49c0.38,0.37,0.64,0.82,0.78,1.35c0.14,0.53,0.15,1.07,0.03,1.6c-0.12,0.54-0.36,1-0.73,1.38
		c-0.37,0.38-0.82,0.64-1.35,0.78c-0.53,0.14-1.07,0.15-1.6,0.03c-0.54-0.12-1-0.37-1.38-0.73l-7.54-7.27l-4.25,4.41l7.54,7.27
		c1.21,1.16,2.6,1.94,4.18,2.33c1.58,0.39,3.15,0.36,4.72-0.09c1.57-0.45,2.93-1.27,4.09-2.48c1.16-1.21,1.94-2.6,2.33-4.18
		c0.39-1.58,0.36-3.16-0.09-4.72c-0.45-1.57-1.27-2.93-2.48-4.09l-5.69-5.48c-1.47-1.42-3.02-2.57-4.66-3.47
		c-1.63-0.89-3.36-1.56-5.19-1.98c-1.83-0.43-3.85-0.64-6.08-0.63c-0.23,0-0.46,0.02-0.67,0.03c-0.22,0.02-0.44,0.03-0.67,0.03
		c-0.14-0.03-0.29-0.04-0.43-0.04c-0.15,0-0.29-0.01-0.43-0.04c-1.59-0.12-3-0.36-4.22-0.75c-1.22-0.38-2.36-0.9-3.43-1.56
		c-1.07-0.66-2.1-1.47-3.1-2.43l-5.69-5.49c-0.38-0.37-0.64-0.82-0.78-1.35c-0.14-0.53-0.15-1.07-0.03-1.6
		c0.12-0.54,0.37-1,0.73-1.38c0.37-0.38,0.82-0.64,1.35-0.78c0.53-0.14,1.07-0.15,1.6-0.03c0.54,0.12,1,0.37,1.38,0.73l7.54,7.27
		l4.25-4.41l-7.54-7.27c-1.21-1.16-2.6-1.94-4.18-2.33c-1.58-0.39-3.16-0.36-4.72,0.09c-1.57,0.45-2.93,1.27-4.09,2.48
		C224.66,415.35,223.88,416.74,223.49,418.33 M286.45,432.22l-4.11,5.02l9.78,14.26l4.12-5.02L286.45,432.22z M317.03,416.56
		l-65.07-34.66l-5.24,8.28l59.18,43.98l3.28-5.18l-45.8-34.06l50.39,26.81L317.03,416.56z M259.17,367.01l-2.44,5.62l67.46,29.22
		l2.44-5.62L259.17,367.01z M331.92,356.76l-1.21,6.01l6.01,1.21l1.21-6.01L331.92,356.76z M265.85,343.47l-1.21,6.01l60.07,12.08
		l1.21-6.01L265.85,343.47z M319.8,329.65l-0.52,6.1l9.16,0.78l0.52-6.11L319.8,329.65z M267.91,325.22l-0.52,6.11l51.89,4.43
		c0.57,0.05,1.08,0.22,1.52,0.53c0.44,0.3,0.78,0.7,1,1.19c0.23,0.49,0.31,1.02,0.26,1.59l-0.39,4.58l6.1,0.52l0.39-4.58
		c0.14-1.67-0.13-3.24-0.83-4.71c-0.69-1.47-1.71-2.68-3.04-3.61c-1.33-0.93-2.84-1.47-4.51-1.61L267.91,325.22z M320.78,301.15
		l-0.05,6.13l8.58,0.07l0.05-6.13L320.78,301.15z M268.09,300.7l-0.05,6.13l52.69,0.45c0.57,0,1.09,0.14,1.56,0.41
		c0.47,0.27,0.83,0.64,1.09,1.11c0.26,0.47,0.39,0.99,0.39,1.57c-0.01,0.57-0.14,1.09-0.41,1.56c-0.27,0.47-0.64,0.83-1.11,1.09
		c-0.47,0.26-0.99,0.39-1.57,0.39l-52.69-0.45l-0.05,6.13l52.69,0.45c1.67,0.01,3.22-0.38,4.64-1.19c1.42-0.81,2.54-1.91,3.37-3.31
		c0.83-1.4,1.25-2.94,1.26-4.61c0.01-1.68-0.38-3.22-1.19-4.64c-0.81-1.42-1.91-2.54-3.31-3.37c-1.4-0.83-2.94-1.25-4.62-1.27
		L268.09,300.7z M300.97,280.38l18.96-1.1c0.57-0.03,1.1,0.07,1.58,0.31c0.48,0.24,0.87,0.58,1.16,1.04
		c0.29,0.45,0.46,0.96,0.49,1.54c0.03,0.57-0.07,1.1-0.31,1.58c-0.24,0.48-0.58,0.87-1.04,1.17c-0.45,0.29-0.97,0.45-1.54,0.49
		l-18.96,1.1L300.97,280.38z M275.54,275.72c-1.67,0.1-3.19,0.59-4.55,1.49c-1.36,0.9-2.41,2.07-3.14,3.53
		c-0.73,1.45-1.05,3.02-0.95,4.69s0.6,3.19,1.49,4.55s2.07,2.41,3.53,3.14c1.45,0.73,3.02,1.05,4.69,0.95l9.91-0.58l-0.35-6.12
		l-9.91,0.58c-0.57,0.03-1.1-0.07-1.58-0.31c-0.48-0.24-0.87-0.58-1.16-1.04c-0.29-0.45-0.46-0.97-0.49-1.54
		c-0.03-0.57,0.07-1.1,0.31-1.58c0.24-0.48,0.58-0.87,1.04-1.17c0.45-0.29,0.96-0.45,1.54-0.49l18.96-1.1l0.71,12.23l25.08-1.46
		c1.67-0.1,3.19-0.59,4.55-1.49c1.36-0.9,2.4-2.07,3.14-3.53c0.73-1.45,1.05-3.02,0.95-4.69c-0.1-1.67-0.6-3.19-1.49-4.55
		c-0.9-1.36-2.07-2.41-3.53-3.14c-1.45-0.73-3.02-1.05-4.69-0.96L275.54,275.72z M263.5,251.96l0.96,6.05l33.28-5.3l0.96,6.05
		l-33.28,5.3l0.96,6.05L339,258.56l-0.96-6.05l-33.28,5.3l-0.96-6.05l33.28-5.3l-0.96-6.05L263.5,251.96z M306.33,204.68l5.43,14.32
		l5.73-2.17l-5.43-14.32L306.33,204.68z M255.85,227.08l2.17,5.73l60.16-22.79c0.53-0.2,1.07-0.26,1.6-0.18
		c0.53,0.08,1.01,0.3,1.42,0.64c0.41,0.35,0.72,0.78,0.93,1.32l1.08,2.86l5.73-2.17l-1.08-2.86c-0.59-1.57-1.52-2.86-2.78-3.89
		c-1.26-1.03-2.7-1.67-4.31-1.94c-1.61-0.26-3.19-0.1-4.76,0.49L255.85,227.08z M293.09,184.63c0.49-0.3,1-0.46,1.54-0.47
		c0.54-0.02,1.04,0.1,1.52,0.37c0.47,0.26,0.86,0.64,1.15,1.12c0.3,0.49,0.46,1,0.48,1.54c0.02,0.54-0.1,1.04-0.37,1.52
		c-0.26,0.47-0.64,0.86-1.12,1.15l-37.64,23.01c-0.49,0.3-1,0.46-1.54,0.48c-0.54,0.02-1.05-0.1-1.52-0.36
		c-0.47-0.26-0.86-0.64-1.15-1.13c-0.3-0.49-0.46-1-0.48-1.54c-0.02-0.54,0.1-1.05,0.37-1.52c0.26-0.47,0.64-0.86,1.12-1.16
		L293.09,184.63z M252.26,202.42c-1.43,0.87-2.53,2.02-3.31,3.46c-0.78,1.43-1.14,2.96-1.11,4.59c0.04,1.63,0.49,3.16,1.37,4.58
		c0.87,1.43,2.03,2.53,3.46,3.31c1.43,0.78,2.96,1.14,4.59,1.11c1.63-0.04,3.16-0.49,4.59-1.37l37.64-23.01
		c1.43-0.87,2.53-2.03,3.31-3.46s1.14-2.96,1.11-4.59c-0.04-1.63-0.49-3.16-1.37-4.59c-0.87-1.43-2.03-2.53-3.46-3.31
		c-1.43-0.78-2.96-1.15-4.59-1.11c-1.63,0.04-3.16,0.49-4.59,1.37L252.26,202.42z M257.68,148.29l4.95,3.62l5.42-7.42l-4.94-3.62
		L257.68,148.29z M226.93,190.32l4.95,3.62l30.74-42.03c0.34-0.46,0.75-0.8,1.24-1.03c0.49-0.22,1.01-0.3,1.54-0.24
		c0.54,0.06,1.03,0.26,1.5,0.6l3.71,2.71l3.62-4.95l-3.71-2.71c-1.35-0.99-2.84-1.57-4.46-1.74s-3.17,0.07-4.67,0.72
		c-1.49,0.65-2.73,1.66-3.72,3.01L226.93,190.32z M230.74,134.38c0.19-0.54,0.49-0.98,0.9-1.34c0.41-0.35,0.88-0.58,1.41-0.67
		c0.53-0.09,1.07-0.04,1.6,0.15c0.54,0.19,0.98,0.49,1.34,0.9c0.35,0.41,0.57,0.88,0.67,1.41c0.09,0.53,0.04,1.07-0.15,1.61
		l-14.85,41.54c-0.19,0.54-0.49,0.98-0.9,1.34c-0.41,0.35-0.88,0.58-1.41,0.67c-0.53,0.09-1.07,0.04-1.61-0.15
		c-0.54-0.19-0.98-0.49-1.34-0.9c-0.35-0.41-0.58-0.88-0.67-1.41c-0.09-0.53-0.04-1.07,0.15-1.61L230.74,134.38z M210.11,173.85
		c-0.56,1.58-0.7,3.17-0.4,4.77c0.3,1.6,0.97,3.02,2.02,4.27c1.05,1.24,2.37,2.15,3.94,2.71c1.58,0.56,3.17,0.7,4.77,0.4
		s3.02-0.97,4.27-2.02c1.24-1.05,2.15-2.36,2.71-3.94l14.85-41.54c0.56-1.58,0.7-3.17,0.4-4.77c-0.3-1.6-0.97-3.03-2.02-4.27
		c-1.05-1.24-2.37-2.15-3.94-2.71c-1.58-0.56-3.17-0.7-4.77-0.4c-1.6,0.29-3.02,0.97-4.27,2.02s-2.15,2.37-2.71,3.94L210.11,173.85z
		 M198.02,180.88l6.08,0.77l9.23-72.94l-6.08-0.77L198.02,180.88z M180.52,127.96c-0.02-0.57,0.09-1.1,0.33-1.58
		c0.25-0.48,0.6-0.86,1.06-1.15c0.46-0.29,0.97-0.44,1.54-0.46c0.57-0.02,1.1,0.09,1.58,0.33c0.48,0.25,0.86,0.6,1.15,1.06
		c0.29,0.46,0.44,0.97,0.46,1.54l1.84,44.07c0.02,0.57-0.09,1.1-0.33,1.58s-0.6,0.86-1.06,1.15c-0.46,0.28-0.97,0.44-1.54,0.46
		c-0.57,0.02-1.1-0.09-1.58-0.33c-0.48-0.25-0.86-0.6-1.15-1.06c-0.29-0.46-0.44-0.97-0.46-1.54L180.52,127.96z M176.24,172.29
		c0.07,1.67,0.54,3.2,1.42,4.57c0.88,1.37,2.03,2.44,3.48,3.2s3,1.1,4.67,1.03c1.67-0.07,3.2-0.54,4.57-1.42
		c1.37-0.87,2.44-2.03,3.2-3.47c0.76-1.44,1.1-3,1.03-4.67l-1.84-44.07c-0.07-1.67-0.54-3.2-1.42-4.57
		c-0.88-1.37-2.03-2.44-3.48-3.2c-1.44-0.76-3-1.1-4.67-1.03c-1.67,0.07-3.2,0.54-4.57,1.42c-1.37,0.88-2.44,2.03-3.2,3.48
		c-0.76,1.44-1.1,3-1.03,4.67L176.24,172.29z M153.29,178.3c0.51,1.6,1.36,2.94,2.57,4.04c1.2,1.1,2.6,1.82,4.19,2.17
		c1.59,0.35,3.18,0.28,4.78-0.23c1.6-0.51,2.94-1.36,4.04-2.57c1.1-1.2,1.82-2.6,2.17-4.19s0.28-3.18-0.23-4.78l-3-9.46l-5.84,1.85
		l3,9.46c0.17,0.55,0.2,1.08,0.09,1.61c-0.11,0.53-0.35,0.99-0.72,1.38c-0.37,0.4-0.82,0.68-1.37,0.85
		c-0.55,0.17-1.08,0.2-1.61,0.09c-0.53-0.11-0.99-0.35-1.38-0.72c-0.4-0.37-0.68-0.82-0.85-1.37L145.8,134.4
		c-0.17-0.54-0.2-1.08-0.09-1.61c0.11-0.53,0.35-0.99,0.72-1.38c0.37-0.39,0.82-0.68,1.37-0.85c0.54-0.17,1.08-0.2,1.61-0.09
		c0.53,0.11,0.99,0.35,1.38,0.72c0.4,0.37,0.68,0.82,0.85,1.37l3,9.46l5.84-1.85l-3-9.46c-0.51-1.6-1.36-2.94-2.57-4.04
		c-1.21-1.1-2.6-1.82-4.19-2.18c-1.59-0.35-3.18-0.28-4.78,0.23c-1.6,0.51-2.94,1.36-4.04,2.57c-1.1,1.2-1.82,2.6-2.17,4.19
		c-0.35,1.59-0.28,3.18,0.23,4.78L153.29,178.3z M112.44,177.02l-13.36-13.5c-0.4-0.41-0.67-0.87-0.82-1.39
		c-0.14-0.52-0.14-1.04,0.01-1.56c0.15-0.52,0.42-0.98,0.83-1.38c0.41-0.4,0.87-0.67,1.39-0.82c0.52-0.14,1.04-0.14,1.56,0.01
		c0.52,0.15,0.98,0.42,1.38,0.83l13.36,13.5L112.44,177.02z M125.76,199.18c1.18,1.19,2.55,2,4.12,2.43
		c1.57,0.43,3.15,0.43,4.72,0.02s2.96-1.21,4.15-2.38c1.19-1.18,2-2.55,2.43-4.12c0.43-1.57,0.43-3.15,0.02-4.72
		c-0.41-1.57-1.2-2.96-2.38-4.15l-6.98-7.05l-4.35,4.31l6.98,7.05c0.4,0.41,0.67,0.87,0.82,1.39c0.14,0.52,0.14,1.04-0.01,1.56
		c-0.15,0.52-0.42,0.98-0.83,1.38c-0.41,0.4-0.87,0.68-1.39,0.82c-0.52,0.14-1.04,0.14-1.56-0.01c-0.52-0.15-0.98-0.42-1.38-0.83
		l-13.36-13.5l8.71-8.62l-17.67-17.85c-1.18-1.19-2.55-2-4.12-2.42c-1.57-0.43-3.14-0.43-4.72-0.02c-1.58,0.41-2.96,1.2-4.15,2.38
		c-1.19,1.18-2,2.55-2.43,4.12c-0.43,1.57-0.43,3.15-0.02,4.72c0.41,1.58,1.21,2.96,2.38,4.15L125.76,199.18z M74.6,198.57
		l2.93-5.38l-18.29-9.97l-2.93,5.38L74.6,198.57z M126.72,213.04l2.93-5.38L83.4,182.43c-1.47-0.8-3.02-1.18-4.65-1.14
		c-1.63,0.04-3.14,0.49-4.53,1.33c-1.39,0.85-2.49,2-3.29,3.47c-0.8,1.47-1.18,3.02-1.14,4.65c0.04,1.63,0.49,3.14,1.33,4.53
		c0.85,1.39,2.01,2.49,3.47,3.29l46.26,25.23l2.93-5.38l-46.26-25.23c-0.5-0.27-0.9-0.64-1.18-1.1c-0.29-0.46-0.43-0.96-0.44-1.5
		c-0.01-0.54,0.12-1.06,0.4-1.56c0.27-0.5,0.64-0.9,1.1-1.18c0.46-0.28,0.96-0.43,1.5-0.44c0.54-0.01,1.06,0.12,1.56,0.4
		L126.72,213.04z M62.99,222.29l0.97-2.91l43.59,14.53c1.59,0.53,3.18,0.63,4.78,0.3c1.6-0.33,3-1.03,4.22-2.11
		c1.22-1.08,2.1-2.41,2.63-4l0.97-2.91l-5.81-1.94l-0.97,2.91c-0.18,0.54-0.47,1-0.87,1.36c-0.4,0.36-0.87,0.59-1.4,0.7
		c-0.53,0.1-1.07,0.07-1.61-0.12l-43.59-14.53l1.94-5.81l-5.81-1.94l-1.94,5.81l-5.81-1.94l-1.94,5.81l5.81,1.94l-0.97,2.91
		L62.99,222.29z M111.33,254.56c-0.61-1.51-1.55-2.77-2.83-3.78c-1.28-1.01-2.74-1.64-4.4-1.88l-7.82-1.13
		c-2.06-0.3-3.98-0.31-5.75-0.03c-1.77,0.28-3.41,0.77-4.92,1.48c-1.51,0.71-3.17,1.67-5,2.9c-0.31,0.16-0.62,0.32-0.94,0.48
		c-0.31,0.16-0.62,0.32-0.94,0.48c-0.13,0.06-0.25,0.12-0.36,0.16c-0.11,0.05-0.21,0.1-0.3,0.17c-1.35,0.79-2.65,1.39-3.88,1.79
		c-1.23,0.4-2.48,0.65-3.73,0.76c-1.25,0.11-2.57,0.06-3.94-0.14l-7.82-1.13c-0.53-0.08-1-0.29-1.42-0.64
		c-0.42-0.35-0.74-0.78-0.96-1.28c-0.21-0.51-0.29-1.02-0.21-1.55c0.08-0.52,0.29-1,0.64-1.42c0.35-0.42,0.78-0.74,1.28-0.96
		c0.51-0.22,1.02-0.28,1.55-0.21l10.37,1.5l0.88-6.06l-10.37-1.5c-1.66-0.24-3.24-0.06-4.75,0.55c-1.51,0.61-2.77,1.55-3.78,2.83
		c-1.01,1.28-1.64,2.74-1.88,4.4c-0.24,1.66-0.06,3.24,0.55,4.75c0.61,1.51,1.55,2.77,2.82,3.78c1.28,1.01,2.75,1.64,4.4,1.88
		l7.82,1.14c2.02,0.29,3.96,0.33,5.8,0.1c1.85-0.23,3.64-0.7,5.38-1.42c1.73-0.72,3.5-1.73,5.3-3.04c0.19-0.14,0.36-0.28,0.53-0.42
		c0.17-0.14,0.34-0.28,0.53-0.42c0.13-0.06,0.26-0.14,0.37-0.22c0.11-0.09,0.24-0.16,0.37-0.23c1.36-0.83,2.65-1.45,3.86-1.85
		c1.21-0.4,2.45-0.64,3.7-0.73c1.25-0.09,2.56-0.03,3.94,0.17l7.82,1.13c0.53,0.08,1,0.29,1.42,0.64c0.42,0.35,0.74,0.78,0.96,1.28
		c0.22,0.51,0.29,1.02,0.21,1.55c-0.08,0.53-0.29,1-0.64,1.42c-0.35,0.42-0.78,0.74-1.28,0.96c-0.5,0.22-1.02,0.29-1.55,0.21
		l-10.37-1.5l-0.88,6.06l10.37,1.5c1.66,0.24,3.24,0.06,4.75-0.55c1.51-0.6,2.77-1.55,3.78-2.83c1.01-1.28,1.64-2.74,1.88-4.4
		C112.11,257.66,111.93,256.08,111.33,254.56 M42.11,272.74l0.43-6.11l-6.11-0.43L36,272.31L42.11,272.74z M109.34,277.5l0.43-6.11
		l-61.11-4.33l-0.43,6.11L109.34,277.5z M53.98,305.28l-0.1-3.06l45.93-1.47c1.67-0.05,3.2-0.51,4.58-1.37
		c1.38-0.86,2.46-2.01,3.23-3.44c0.77-1.43,1.13-2.99,1.08-4.66l-0.1-3.06l-6.12,0.2l0.1,3.06c0.02,0.57-0.1,1.1-0.35,1.58
		c-0.25,0.48-0.61,0.86-1.07,1.14c-0.46,0.28-0.98,0.43-1.55,0.45l-45.93,1.46l-0.2-6.12l-6.12,0.2l0.19,6.12l-6.12,0.19l0.2,6.12
		l6.12-0.2l0.1,3.06L53.98,305.28z M101.75,312.89l8.4-1.76l-1.26-6l-8.4,1.76L101.75,312.89z M87.42,322.15
		c-0.56,0.12-1.1,0.1-1.61-0.07c-0.51-0.16-0.95-0.45-1.31-0.85c-0.36-0.4-0.59-0.89-0.71-1.45l-0.63-3l18.59-3.89
		c0.56-0.12,1.1-0.09,1.61,0.07c0.51,0.16,0.95,0.45,1.31,0.85c0.36,0.4,0.59,0.89,0.71,1.45c0.12,0.56,0.09,1.1-0.07,1.61
		c-0.16,0.51-0.45,0.95-0.85,1.31c-0.4,0.36-0.89,0.59-1.45,0.71L87.42,322.15z M104.26,324.88c1.64-0.34,3.07-1.06,4.28-2.15
		c1.21-1.09,2.07-2.41,2.58-3.95c0.51-1.55,0.59-3.14,0.25-4.78c-0.34-1.64-1.07-3.06-2.18-4.27c-1.11-1.21-2.44-2.07-3.98-2.58
		c-1.55-0.51-3.12-0.6-4.72-0.26l-24.59,5.15l1.89,8.99c0.34,1.64,1.06,3.06,2.15,4.28c1.09,1.21,2.41,2.07,3.95,2.58
		c1.55,0.51,3.14,0.59,4.78,0.25L104.26,324.88z M83.16,316.78l-7.25-4.74l-18.59,3.89c-1.64,0.34-3.06,1.06-4.28,2.15
		c-1.21,1.09-2.07,2.41-2.58,3.95c-0.51,1.55-0.59,3.14-0.25,4.78c0.34,1.64,1.06,3.06,2.15,4.28c1.09,1.21,2.41,2.07,3.95,2.58
		c1.55,0.51,3.14,0.6,4.78,0.25l9.72-2.04l-1.26-6l-9.71,2.04c-0.56,0.12-1.1,0.09-1.61-0.07c-0.51-0.16-0.95-0.45-1.31-0.85
		c-0.36-0.4-0.59-0.89-0.71-1.45c-0.12-0.56-0.09-1.1,0.07-1.61c0.16-0.51,0.45-0.95,0.85-1.31c0.41-0.36,0.89-0.59,1.45-0.71
		L83.16,316.78z M72.05,363.84l-2.41-5.63l-19.15,8.2l2.41,5.63L72.05,363.84z M115.66,331.84l-2.41-5.63l-48.44,20.74
		c-1.54,0.66-2.8,1.64-3.77,2.95c-0.97,1.31-1.56,2.77-1.76,4.38c-0.2,1.62,0.04,3.2,0.7,4.73c0.66,1.54,1.64,2.8,2.95,3.77
		s2.77,1.56,4.38,1.76c1.62,0.2,3.19-0.04,4.73-0.69l48.44-20.74l-2.41-5.63l-48.44,20.74c-0.53,0.23-1.06,0.31-1.59,0.25
		c-0.54-0.06-1.02-0.25-1.45-0.58c-0.43-0.33-0.76-0.75-0.98-1.28s-0.31-1.06-0.25-1.59c0.06-0.54,0.25-1.02,0.58-1.45
		c0.33-0.43,0.75-0.76,1.28-0.98L115.66,331.84z M91.77,424.84l50.35-53.88l-6.54-7.14L94.11,396.1l35.8-38.47l-6.54-7.14
		l-58.09,45.43l4.14,4.52l44.89-35.08l-38.93,41.58l6.29,6.86l44.76-35.04l-38.8,41.54L91.77,424.84z"/>
</g>
</svg>
